<svg width="256" height="256" viewBox="0 0 256 256" fill="none" xmlns="http://www.w3.org/2000/svg">
<rect width="256" height="256" rx="128" fill="#995662"/>
<path d="M94.1149 212C89.521 212 85.5898 210.366 82.3212 207.099C79.047 203.825 77.4099 199.893 77.4099 195.3C77.4099 190.708 79.047 186.775 82.3212 183.501C85.5898 180.234 89.521 178.6 94.1149 178.6C98.7088 178.6 102.64 180.234 105.909 183.501C109.183 186.775 110.82 190.708 110.82 195.3C110.82 199.893 109.183 203.825 105.909 207.099C102.64 210.366 98.7088 212 94.1149 212ZM177.64 212C173.046 212 169.115 210.366 165.846 207.099C162.572 203.825 160.935 199.893 160.935 195.3C160.935 190.708 162.572 186.775 165.846 183.501C169.115 180.234 173.046 178.6 177.64 178.6C182.234 178.6 186.168 180.234 189.442 183.501C192.71 186.775 194.345 190.708 194.345 195.3C194.345 199.893 192.71 203.825 189.442 207.099C186.168 210.366 182.234 212 177.64 212ZM94.1149 170.25C87.8505 170.25 83.1175 167.5 79.9157 162C76.7139 156.506 76.5747 151.045 79.4981 145.618L90.7739 125.16L60.705 61.7H52.1437C49.7771 61.7 47.8282 60.8984 46.2969 59.2952C44.7656 57.6976 44 55.7158 44 53.35C44 50.9842 44.8018 48.9996 46.4055 47.3964C48.0036 45.7988 49.9859 45 52.3525 45H65.9253C67.4566 45 68.9183 45.4175 70.3103 46.2525C71.7024 47.0875 72.7465 48.2704 73.4425 49.8013L79.0804 61.7H202.28C206.038 61.7 208.614 63.0917 210.006 65.875C211.398 68.6583 211.328 71.5808 209.797 74.6425L180.146 128.083C178.614 130.866 176.596 133.023 174.09 134.554C171.584 136.085 168.73 136.85 165.529 136.85H103.303L94.1149 153.55H186.201C188.568 153.55 190.517 154.349 192.048 155.946C193.579 157.55 194.345 159.534 194.345 161.9C194.345 164.266 193.543 166.248 191.939 167.845C190.341 169.448 188.359 170.25 185.992 170.25H94.1149Z" fill="white"/>
</svg>
