<svg width="401" height="103" viewBox="0 0 401 103" fill="none" xmlns="http://www.w3.org/2000/svg">
<rect width="401" height="103" rx="15" fill="white"/>
<path d="M58.7062 86C56.8081 86 55.1838 85.325 53.8333 83.9749C52.4805 82.6225 51.8041 80.9975 51.8041 79.1C51.8041 77.2025 52.4805 75.5776 53.8333 74.2252C55.1838 72.8751 56.8081 72.2 58.7062 72.2C60.6042 72.2 62.2285 72.8751 63.579 74.2252C64.9318 75.5776 65.6082 77.2025 65.6082 79.1C65.6082 80.9975 64.9318 82.6225 63.579 83.9749C62.2285 85.325 60.6042 86 58.7062 86ZM93.2164 86C91.3184 86 89.6941 85.325 88.3436 83.9749C86.9908 82.6225 86.3144 80.9975 86.3144 79.1C86.3144 77.2025 86.9908 75.5776 88.3436 74.2252C89.6941 72.8751 91.3184 72.2 93.2164 72.2C95.1145 72.2 96.7399 72.8751 98.0927 74.2252C99.4432 75.5776 100.118 77.2025 100.118 79.1C100.118 80.9975 99.4432 82.6225 98.0927 83.9749C96.7399 85.325 95.1145 86 93.2164 86ZM58.7062 68.75C56.1179 68.75 54.1623 67.6138 52.8394 65.3414C51.5165 63.0713 51.459 60.815 52.6669 58.5725L57.3258 50.12L44.9021 23.9H41.3648C40.387 23.9 39.5817 23.5688 38.949 22.9064C38.3163 22.2463 38 21.4275 38 20.45C38 19.4725 38.3313 18.6525 38.9939 17.9901C39.6542 17.33 40.4732 17 41.451 17H47.0589C47.6916 17 48.2956 17.1725 48.8707 17.5175C49.4459 17.8625 49.8773 18.3513 50.1649 18.9838L52.4943 23.9H103.397C104.95 23.9 106.014 24.475 106.589 25.625C107.164 26.775 107.136 27.9825 106.503 29.2475L94.2517 51.3275C93.6191 52.4775 92.7851 53.3688 91.7498 54.0013C90.7144 54.6338 89.5353 54.95 88.2124 54.95H62.5023L58.7062 61.85H96.7537C97.7315 61.85 98.5368 62.1801 99.1695 62.8402C99.8021 63.5026 100.118 64.3225 100.118 65.3C100.118 66.2775 99.7872 67.0963 99.1246 67.7564C98.4643 68.4188 97.6453 68.75 96.6675 68.75H58.7062Z" fill="#995662"/>
<path d="M162.184 78.696C162.952 79.976 163.229 81.128 163.016 82.152C162.803 83.2187 162.269 84.1147 161.416 84.84C160.605 85.5653 159.624 86.0347 158.472 86.248C157.363 86.4613 156.253 86.3547 155.144 85.928C154.035 85.5013 153.117 84.6907 152.392 83.496L147.656 75.88C147.187 75.112 146.568 74.5573 145.8 74.216C145.032 73.8747 144.029 73.704 142.792 73.704L151.56 70.44C153.48 70.44 155.101 70.8027 156.424 71.528C157.747 72.2107 158.877 73.3413 159.816 74.92L162.184 78.696ZM142.856 73.704C138.291 73.704 134.28 72.744 130.824 70.824C127.368 68.8613 124.68 66.1307 122.76 62.632C120.883 59.1333 119.944 55.0587 119.944 50.408C119.944 46.9093 120.477 43.7307 121.544 40.872C122.653 38.0133 124.211 35.56 126.216 33.512C128.264 31.464 130.696 29.9067 133.512 28.84C136.328 27.7307 139.443 27.176 142.856 27.176C147.421 27.176 151.411 28.136 154.824 30.056C158.28 31.976 160.968 34.6853 162.888 38.184C164.808 41.64 165.768 45.7147 165.768 50.408C165.768 53.9067 165.213 57.0853 164.104 59.944C163.037 62.8027 161.48 65.2773 159.432 67.368C157.427 69.416 155.016 70.9947 152.2 72.104C149.384 73.1707 146.269 73.704 142.856 73.704ZM142.856 63.848C145.117 63.848 147.037 63.3147 148.616 62.248C150.195 61.1813 151.411 59.6453 152.264 57.64C153.117 55.6347 153.544 53.224 153.544 50.408C153.544 46.184 152.605 42.8987 150.728 40.552C148.851 38.2053 146.227 37.032 142.856 37.032C140.637 37.032 138.717 37.5653 137.096 38.632C135.517 39.656 134.301 41.1707 133.448 43.176C132.595 45.1387 132.168 47.5493 132.168 50.408C132.168 54.632 133.107 57.9387 134.984 60.328C136.861 62.6747 139.485 63.848 142.856 63.848ZM178.609 73.576C176.732 73.576 175.281 73.064 174.257 72.04C173.233 70.9733 172.721 69.5013 172.721 67.624V33.256C172.721 31.2933 173.233 29.8213 174.257 28.84C175.281 27.816 176.732 27.304 178.609 27.304C180.529 27.304 181.98 27.816 182.961 28.84C183.985 29.8213 184.497 31.2933 184.497 33.256V47.208H184.625L200.177 30.056C200.988 29.2027 201.841 28.5413 202.737 28.072C203.676 27.56 204.721 27.304 205.873 27.304C207.665 27.304 208.945 27.7733 209.713 28.712C210.524 29.608 210.886 30.6747 210.801 31.912C210.758 33.1067 210.268 34.216 209.329 35.24L193.841 51.688V46.888L210.097 65.256C211.206 66.4933 211.761 67.7733 211.761 69.096C211.761 70.376 211.313 71.4427 210.417 72.296C209.564 73.1493 208.284 73.576 206.577 73.576C205.126 73.576 203.953 73.2987 203.057 72.744C202.204 72.1467 201.265 71.272 200.241 70.12L184.625 52.648H184.497V67.624C184.497 69.5013 184.006 70.9733 183.025 72.04C182.044 73.064 180.572 73.576 178.609 73.576ZM218.958 73.576C217.635 73.576 216.526 73.2773 215.63 72.68C214.734 72.04 214.179 71.1867 213.966 70.12C213.753 69.0107 213.945 67.7733 214.542 66.408L230.478 32.104C231.246 30.44 232.185 29.224 233.294 28.456C234.446 27.688 235.747 27.304 237.198 27.304C238.649 27.304 239.907 27.688 240.974 28.456C242.083 29.224 243.043 30.44 243.854 32.104L259.79 66.408C260.473 67.7733 260.707 69.0107 260.494 70.12C260.323 71.2293 259.79 72.0827 258.894 72.68C258.041 73.2773 256.974 73.576 255.694 73.576C253.987 73.576 252.665 73.192 251.726 72.424C250.83 71.656 250.019 70.4187 249.294 68.712L245.838 60.584L250.318 63.848H223.95L228.494 60.584L225.038 68.712C224.27 70.4187 223.481 71.656 222.67 72.424C221.859 73.192 220.622 73.576 218.958 73.576ZM237.07 40.168L229.646 57.896L227.854 54.824H246.478L244.686 57.896L237.198 40.168H237.07ZM271.547 73.576C269.669 73.576 268.219 73.064 267.195 72.04C266.171 70.9733 265.659 69.5013 265.659 67.624V33.832C265.659 31.912 266.171 30.44 267.195 29.416C268.261 28.392 269.733 27.88 271.611 27.88H287.355C292.475 27.88 296.421 29.1387 299.194 31.656C302.011 34.1307 303.419 37.5867 303.419 42.024C303.419 44.8827 302.779 47.3787 301.499 49.512C300.261 51.6027 298.448 53.224 296.059 54.376C293.712 55.4853 290.811 56.04 287.355 56.04L287.867 54.888H290.939C292.773 54.888 294.395 55.336 295.803 56.232C297.211 57.0853 298.384 58.408 299.323 60.2L302.523 65.96C303.205 67.1973 303.525 68.4133 303.483 69.608C303.44 70.76 302.971 71.72 302.075 72.488C301.221 73.2133 299.963 73.576 298.299 73.576C296.635 73.576 295.269 73.2347 294.203 72.552C293.179 71.8693 292.261 70.8027 291.451 69.352L285.627 58.664C285.115 57.7253 284.453 57.0853 283.643 56.744C282.875 56.36 281.979 56.168 280.955 56.168H277.435V67.624C277.435 69.5013 276.944 70.9733 275.963 72.04C274.981 73.064 273.509 73.576 271.547 73.576ZM277.435 47.848H285.243C287.504 47.848 289.232 47.4 290.427 46.504C291.621 45.608 292.219 44.2213 292.219 42.344C292.219 40.552 291.621 39.208 290.427 38.312C289.232 37.3733 287.504 36.904 285.243 36.904H277.435V47.848ZM326.108 73.576C324.231 73.576 322.78 73.064 321.756 72.04C320.732 70.9733 320.22 69.5013 320.22 67.624V37.48H310.172C308.593 37.48 307.377 37.0747 306.524 36.264C305.713 35.4107 305.308 34.216 305.308 32.68C305.308 31.1013 305.713 29.9067 306.524 29.096C307.377 28.2853 308.593 27.88 310.172 27.88H342.044C343.623 27.88 344.817 28.2853 345.628 29.096C346.481 29.9067 346.908 31.1013 346.908 32.68C346.908 34.216 346.481 35.4107 345.628 36.264C344.817 37.0747 343.623 37.48 342.044 37.48H331.996V67.624C331.996 69.5013 331.505 70.9733 330.524 72.04C329.543 73.064 328.071 73.576 326.108 73.576Z" fill="#995662"/>
</svg>
